<?xml version="1.0" encoding="utf-8"?>
<!-- Generator: Adobe Illustrator 16.0.0, SVG Export Plug-In . SVG Version: 6.00 Build 0)  -->
<!DOCTYPE svg PUBLIC "-//W3C//DTD SVG 1.1//EN" "http://www.w3.org/Graphics/SVG/1.1/DTD/svg11.dtd">
<svg version="1.1" id="Layer_1" xmlns="http://www.w3.org/2000/svg" xmlns:xlink="http://www.w3.org/1999/xlink" x="0px" y="0px"
	 width="139px" height="139px" viewBox="0 0 139 139" enable-background="new 0 0 139 139" xml:space="preserve">
<path fill-rule="evenodd" clip-rule="evenodd" fill="#333333" d="M0,69.5C0,31.12,31.12,0,69.5,0S139,31.12,139,69.5
	S107.88,139,69.5,139S0,107.88,0,69.5z"/>
<path fill-rule="evenodd" clip-rule="evenodd" fill="#EBEBEB" d="M52.52,71h-8.89l4.5-12.16L52.52,71z M61.85,73.8L52.43,50h-8.3
	L29.27,85h9.3l2.61-7h13.7l2.75,6L61.85,73.8z"/>
<path fill-rule="evenodd" clip-rule="evenodd" fill="#EBEBEB" d="M97.46,75.95c-0.37,0.55-0.86,0.97-1.45,1.27
	c-0.59,0.3-1.27,0.5-1.98,0.61C93.29,77.95,92.59,78,91.92,78h-4.89v-8h4.84c1.86,0,3.34,0.28,4.47,0.84
	c1.12,0.57,1.69,1.57,1.69,3.02C98.03,74.72,97.84,75.42,97.46,75.95z M95.65,63.06c-0.92,0.63-2.2,0.94-3.86,0.94h-4.76v-7h4.35
	c1.86,0,3.27,0.27,4.22,0.8c0.94,0.53,1.43,1.36,1.43,2.51C97.03,61.53,96.56,62.44,95.65,63.06z M105.49,71.69
	c-0.34-0.92-0.81-1.74-1.4-2.44c-0.6-0.69-1.3-1.27-2.11-1.7c-0.81-0.44-1.67-0.75-2.58-0.93v-0.09c1.67-0.56,3.03-1.47,4.06-2.73
	c1.03-1.27,1.57-2.88,1.57-4.82c0-1.78-0.38-3.23-1.1-4.39c-0.73-1.15-1.69-2.06-2.84-2.73c-1.16-0.67-2.46-1.16-3.88-1.44
	C95.79,50.14,94.4,50,93.04,50h-8.22l-5.79,13.36V85h13.79c1.66,0,3.27-0.17,4.86-0.52c1.58-0.34,2.99-0.92,4.24-1.71
	c1.23-0.79,2.23-1.83,2.98-3.15c0.75-1.29,1.13-2.9,1.13-4.82C106.03,73.64,105.84,72.61,105.49,71.69z"/>
<polygon fill-rule="evenodd" clip-rule="evenodd" fill="#00FFBF" points="89.42,31.16 83.27,29 50.55,107 56.8,109.05 "/>
</svg>
