<?xml version="1.0" encoding="utf-8"?>
<!-- Generator: Adobe Illustrator 16.2.1, SVG Export Plug-In . SVG Version: 6.00 Build 0)  -->
<!DOCTYPE svg PUBLIC "-//W3C//DTD SVG 1.1//EN" "http://www.w3.org/Graphics/SVG/1.1/DTD/svg11.dtd">
<svg version="1.1" xmlns="http://www.w3.org/2000/svg" xmlns:xlink="http://www.w3.org/1999/xlink" x="0px" y="0px"
	 width="595.28px" height="841.89px" viewBox="0 0 595.28 841.89" enable-background="new 0 0 595.28 841.89" xml:space="preserve">
<g id="Layer_1" display="none">
	<g display="inline">
		<path fill="#31B296" d="M14.159,28.025L0,47.478c0,0,14.161,12.439,14.159,12.3C14.158,59.454,14.159,28.025,14.159,28.025z"/>
		<polygon fill="#1D9CB3" points="49.416,65.497 14.159,28.025 14.159,59.777 		"/>
		<polygon fill="#4D80C1" points="11.56,99.246 14.159,59.777 49.416,65.497 		"/>
		<polygon fill="#0D97A6" points="0,47.478 14.159,59.777 11.56,99.246 		"/>
		<polygon fill="#5C64AB" points="33.522,133.566 11.56,99.246 49.416,65.497 		"/>
		<polygon fill="#7479B8" points="65.599,139 33.522,133.566 49.416,65.497 		"/>
		<polygon fill="#644E9B" points="92.956,138.144 65.599,139 75.761,117.74 		"/>
		<polygon fill="#574193" points="103.917,128.476 92.956,138.144 75.761,117.74 		"/>
		<polygon fill="#E8385B" points="119.638,124.987 103.917,128.476 108.078,106.967 		"/>
		<polygon fill="#4D2C87" points="107.791,136.997 103.917,128.476 119.638,124.987 		"/>
		<polygon fill="#4F398E" points="92.956,138.144 107.791,136.997 103.917,128.476 		"/>
		<polygon fill="#E94B54" points="76.292,68.929 75.761,117.74 108.078,106.967 		"/>
		<polygon fill="#E94A66" points="121.66,74.935 108.078,106.967 119.638,124.987 		"/>
		<polygon fill="#EE726C" points="139,82.085 119.638,124.987 121.66,74.935 		"/>
		<polygon fill="#EF8091" points="96.807,25.167 121.66,74.935 139,82.085 		"/>
		<polygon fill="#F39FBC" points="133.22,23.168 96.807,25.167 139,82.085 		"/>
		<path fill="#F0826A" d="M69.066,0c0.867,0,64.154,23.168,64.154,23.168l-36.413,1.999L69.066,0z"/>
		<polygon fill="#ED6B6D" points="76.292,68.929 96.807,25.167 121.66,74.935 		"/>
		<polygon fill="#EB5870" points="108.078,106.967 121.66,74.935 76.292,68.929 		"/>
		<polygon fill="#E73542" points="103.917,128.476 108.078,106.967 75.761,117.74 		"/>
		<polygon fill="#6D60A7" points="49.416,65.497 75.761,117.74 65.599,139 		"/>
		<polygon fill="#E73556" points="76.292,68.929 49.416,65.497 75.761,117.74 		"/>
		<polygon fill="#EB5A70" points="69.066,0 76.292,68.929 96.807,25.167 		"/>
		<polygon fill="#E5252E" points="49.416,65.497 69.066,0 14.159,28.025 		"/>
		<polygon fill="#E94358" points="49.416,65.497 69.066,0 76.292,68.929 		"/>
	</g>
	<g display="inline">
		<path fill="#FFFFFF" d="M94.642,97.854c-0.746,3.061-2.426,6.047-5.036,8.956c-4.926,5.521-11.752,8.283-20.481,8.283
			c-5.746,0-10.707-1.271-14.886-3.807c-5.076-3.134-7.612-7.61-7.612-13.433c0-1.418,0.15-2.873,0.449-4.364l10.968,3.358
			c-0.597,1.567-0.446,2.945,0.448,4.14c1.791,2.463,5.334,3.694,10.633,3.694c3.952,0,7.346-1.156,10.184-3.471
			c2.535-1.938,3.954-4.065,4.254-6.38c0.147-1.416-0.244-2.534-1.176-3.357c-0.935-0.819-2.369-1.118-4.311-0.895
			c-1.269,0.15-3.881,0.635-7.832,1.456c-3.284,0.672-5.932,1.006-7.947,1.006c-3.061,0-5.523-0.596-7.387-1.791
			c-2.985-1.863-4.477-4.627-4.477-8.282c0-3.582,1.304-6.828,3.917-9.737c-3.805-3.582-5.708-8.692-5.708-15.336
			c0-7.534,2.424-13.02,7.275-16.454c3.208-2.311,7.685-3.471,13.432-3.471c5.518,0,9.884,1.085,13.091,3.248
			c0.299-0.521,0.449-2.088,0.449-4.701h11.528c0,6.81-1.792,11.373-5.372,13.691c0.746,2.321,1.118,4.901,1.118,7.744
			c0,7.633-2.462,13.17-7.386,16.613c-3.21,2.316-7.688,3.479-13.429,3.479c-0.225,0-1.941-0.225-5.149-0.673
			c-1.866,1.343-2.798,2.538-2.798,3.582c0,2.015,1.232,2.798,3.694,2.35c1.716-0.222,3.656-0.559,5.819-1.007
			c3.806-1.268,6.788-1.902,8.952-1.902c4.18,0,7.761,1.23,10.746,3.693c2.984,2.463,4.479,5.707,4.479,9.738
			C95.091,95.093,94.941,96.436,94.642,97.854z M78.637,57.895c0-3.655-0.878-6.099-2.63-7.33c-1.756-1.232-3.975-1.848-6.658-1.848
			c-2.687,0-4.888,0.615-6.605,1.848c-1.717,1.231-2.574,3.675-2.574,7.33c0,4.106,0.821,6.755,2.463,7.947
			c2.087,1.493,4.326,2.24,6.716,2.24c2.384,0,4.622-0.747,6.712-2.24C77.778,64.649,78.637,62.001,78.637,57.895z"/>
	</g>
</g>
<g id="Layer_2">
	<g>
		<polygon fill="#35B294" points="196.39,114.211 139.109,191.838 255.888,191.838 		"/>
		<polygon fill="#6EC5CC" points="311.017,90.845 196.39,114.211 255.888,191.838 		"/>
		<polygon fill="#3FBBED" points="394.219,248.587 311.017,90.845 255.888,191.838 		"/>
		<polygon fill="#0FADE1" points="290.097,366.489 394.219,248.587 255.888,191.838 		"/>
		<polygon fill="#02A191" points="131.406,326.794 255.888,191.838 139.109,191.838 		"/>
		<polygon fill="#038D5A" points="290.097,366.489 131.406,326.794 255.888,191.838 		"/>
		<polygon fill="#78BAE7" points="290.097,366.489 471.814,298.331 394.219,248.587 		"/>
		<polygon fill="#6DC6D9" points="444.935,153.026 394.219,248.587 471.814,298.331 		"/>
		<polygon fill="#53BAAC" points="311.017,90.845 444.935,153.026 394.219,248.587 		"/>
		<polygon fill="#4960AA" points="245.27,425.988 131.406,326.794 290.097,366.489 		"/>
		<polygon fill="#695FA7" points="394.219,418.549 290.097,366.489 245.27,425.988 		"/>
		<polygon fill="#9399CD" points="471.814,298.331 394.219,418.549 290.097,366.489 		"/>
	</g>
	<g>
		<path fill="#FFFFFF" d="M359.014,317.981c-1.826,7.495-5.939,14.809-12.333,21.933c-12.063,13.522-28.78,20.286-50.158,20.286
			c-14.072,0-26.222-3.112-36.455-9.323c-12.43-7.674-18.643-18.637-18.643-32.896c0-3.473,0.367-7.036,1.1-10.688l26.86,8.225
			c-1.461,3.838-1.093,7.213,1.098,10.138c4.386,6.032,13.062,9.047,26.04,9.047c9.679,0,17.989-2.832,24.939-8.5
			c6.208-4.745,9.683-9.956,10.417-15.624c0.361-3.468-0.598-6.206-2.879-8.222c-2.289-2.007-5.803-2.739-10.557-2.191
			c-3.106,0.368-9.504,1.555-19.18,3.566c-8.042,1.646-14.526,2.463-19.461,2.463c-7.495,0-13.525-1.459-18.091-4.386
			c-7.311-4.563-10.964-11.332-10.964-20.283c0-8.772,3.194-16.722,9.592-23.846c-9.319-8.772-13.979-21.288-13.979-37.558
			c0-18.451,5.936-31.884,17.817-40.296c7.856-5.658,18.82-8.5,32.895-8.5c13.513,0,24.206,2.657,32.06,7.955
			c0.731-1.277,1.101-5.113,1.101-11.513h28.232c0,16.676-4.389,27.853-13.156,33.53c1.827,5.685,2.738,12.003,2.738,18.965
			c0,18.693-6.029,32.253-18.088,40.686c-7.861,5.673-18.826,8.519-32.887,8.519c-0.551,0-4.755-0.55-12.611-1.648
			c-4.569,3.289-6.853,6.216-6.853,8.772c0,4.934,3.017,6.852,9.046,5.754c4.202-0.543,8.954-1.368,14.25-2.465
			c9.32-3.104,16.623-4.659,21.924-4.659c10.235,0,19.006,3.014,26.316,9.045c7.309,6.032,10.968,13.977,10.968,23.849
			C360.114,311.22,359.746,314.508,359.014,317.981z M319.818,220.122c0-8.952-2.15-14.936-6.44-17.951
			c-4.3-3.018-9.733-4.525-16.304-4.525c-6.58,0-11.971,1.507-16.176,4.525c-4.206,3.016-6.304,9-6.304,17.951
			c0,10.057,2.011,16.542,6.033,19.463c5.112,3.657,10.595,5.486,16.447,5.486c5.838,0,11.318-1.83,16.438-5.486
			C317.714,236.665,319.818,230.179,319.818,220.122z"/>
	</g>
</g>
</svg>
