<?xml version="1.0" encoding="utf-8"?>
<!-- Generator: Adobe Illustrator 16.0.0, SVG Export Plug-In . SVG Version: 6.00 Build 0)  -->
<!DOCTYPE svg PUBLIC "-//W3C//DTD SVG 1.1//EN" "http://www.w3.org/Graphics/SVG/1.1/DTD/svg11.dtd">
<svg version="1.1" id="Layer_1" xmlns="http://www.w3.org/2000/svg" xmlns:xlink="http://www.w3.org/1999/xlink" x="0px" y="0px"
	 width="116px" height="24px" viewBox="0 0 116 24" enable-background="new 0 0 116 24" xml:space="preserve">
<polygon fill-rule="evenodd" clip-rule="evenodd" fill="#333333" points="1.77,8.42 8.4,8.42 8.4,17.85 0,17.85 0,21.52 
	20.87,21.52 20.87,17.85 12.26,17.85 12.26,8.42 19.1,8.42 19.1,4.75 1.77,4.75 "/>
<path fill-rule="evenodd" clip-rule="evenodd" fill="#333333" d="M29.82,8.65c-0.25,5.48-2.3,10.43-6.99,12.9
	c1.05,0.56,2.56,1.76,3.41,2.45c5.07-3.11,7.22-8.9,7.81-14.28c0.46-0.08,0.72-0.28,0.77-0.56L29.82,8.65z M41.18,2.4l-0.41,0.25
	H22.75v3.67h15.73c-0.58,1.3-1.92,3.27-3.15,4.39c1.03,0.49,2.67,1.46,3.49,2.07c1.89-2.07,4.05-5.64,5.1-8.27
	c0.28-0.1,0.48-0.25,0.59-0.45L41.18,2.4z"/>
<path fill-rule="evenodd" clip-rule="evenodd" fill="#333333" d="M49.22,12.16c-1.03,2.86-2.41,5.08-4.05,6.66l3.28,1.94
	c1.76-1.79,3.12-4.37,4.3-7.27L49.22,12.16z M59.66,13.49c1.41,1.73,3.53,5.25,4.4,7.29l3.54-2.01c-1.08-1.97-2.95-4.8-4.74-6.86
	L59.66,13.49z M66.06,9.99V6.32H58.3V2.48c0.56-0.08,0.79-0.39,0.85-0.76L54.44,1.5v4.82h-7.76v3.67h7.76v9.72
	c0,0.54-0.15,0.77-0.84,0.77c-0.54,0-2.31-0.03-3.31-0.08c0.44,1.08,0.87,2.57,1.05,3.57c2.72,0.02,4.15,0.02,5.32-0.69
	c0.99-0.62,1.64-1.8,1.64-3.62V9.99H66.06z M60.38,2.48c0.82,0.76,2.25,2.49,2.81,3.39l1.8-1.35c-0.64-0.92-1.9-2.49-2.9-3.4
	L60.38,2.48z M64.35,1.3c0.82,0.87,2.25,2.5,2.84,3.4l1.79-1.35C68.34,2.42,67.06,0.92,66.04,0L64.35,1.3z"/>
<path fill-rule="evenodd" clip-rule="evenodd" fill="#333333" d="M70.61,14.67c0.39-0.05,0.76-0.23,0.94-0.48h20.27v-3.85H70.4
	L70.61,14.67z"/>
<path fill-rule="evenodd" clip-rule="evenodd" fill="#333333" d="M97.96,23.79c0.26-0.12,0.44-0.4,0.49-0.68
	c8.34-3.04,14.39-8.51,17.55-15.45c-1.15-0.64-2.5-1.38-3.65-2.3c-2.91,6.99-8.75,11.97-17.14,14.53L97.96,23.79z M94.59,6.2
	c2.38,0.87,5.41,2.27,7.23,3.47l2.04-3.55c-1.87-1.17-4.9-2.55-7.43-3.29L94.59,6.2z"/>
</svg>
