<?xml version="1.0" encoding="utf-8"?>
<!-- Generator: Adobe Illustrator 17.0.1, SVG Export Plug-In . SVG Version: 6.00 Build 0)  -->
<!DOCTYPE svg PUBLIC "-//W3C//DTD SVG 1.1//EN" "http://www.w3.org/Graphics/SVG/1.1/DTD/svg11.dtd">
<svg version="1.1" id="Layer_1" xmlns="http://www.w3.org/2000/svg" xmlns:xlink="http://www.w3.org/1999/xlink" x="0px" y="0px"
	 width="132px" height="130px" viewBox="0 0 132 130" enable-background="new 0 0 132 130" xml:space="preserve">
<polygon fill="#19B895" points="25.199,9.064 2.988,39.175 48.27,39.175 "/>
<polygon fill="#65C8CD" points="69.647,0 25.199,9.064 48.27,39.175 "/>
<polygon fill="#34B9EB" points="101.91,61.187 69.646,0.001 48.271,39.175 "/>
<polygon fill="#00ACE1" points="61.535,106.92 101.91,61.187 48.271,39.174 "/>
<polygon fill="#00A191" points="0,91.524 48.27,39.175 2.987,39.175 "/>
<polygon fill="#008D58" points="61.535,106.92 0.001,91.523 48.271,39.174 "/>
<polygon fill="#76B9E6" points="61.535,106.92 132,80.483 101.91,61.187 "/>
<polygon fill="#68CBDD" points="121.577,24.12 101.91,61.187 132,80.483 "/>
<polygon fill="#47BFAE" points="69.647,0 121.575,24.12 101.91,61.187 "/>
<polygon fill="#4A61AD" points="44.153,130 0,91.524 61.535,106.92 "/>
<polygon fill="#7363AB" points="101.91,127.114 61.536,106.92 44.152,130 "/>
<polygon fill="#9297CB" points="132,80.483 101.91,127.116 61.536,106.92 "/>
<g>
	<path fill="#FFFFFF" d="M39.992,97.056l6.632-10.892c3.662,3.96,9.007,5.545,14.55,5.545c5.048,0,12.174-2.079,12.174-10.99v-3.663
		c-3.959,4.654-8.71,6.931-14.154,6.931c-11.68,0-21.083-8.02-21.083-24.159c0-15.743,9.106-24.06,21.083-24.06
		c5.345,0,10.294,2.079,14.154,6.832v-5.644h15.144v43.566c0,19.506-15.441,23.664-27.319,23.664
		C52.959,104.185,46.129,102.106,39.992,97.056z M73.349,66.263V53.49c-1.88-2.574-5.939-4.258-9.106-4.258
		c-6.038,0-10.492,3.664-10.492,10.594c0,7.03,4.454,10.694,10.492,10.694C67.41,70.52,71.468,68.837,73.349,66.263z"/>
</g>
</svg>
