<?xml version="1.0" encoding="utf-8"?>
<!-- Generator: Adobe Illustrator 17.0.1, SVG Export Plug-In . SVG Version: 6.00 Build 0)  -->
<!DOCTYPE svg PUBLIC "-//W3C//DTD SVG 1.1//EN" "http://www.w3.org/Graphics/SVG/1.1/DTD/svg11.dtd">
<svg version="1.1" id="Layer_1" xmlns="http://www.w3.org/2000/svg" xmlns:xlink="http://www.w3.org/1999/xlink" x="0px" y="0px"
	 width="66px" height="65px" viewBox="0 0 66 65" enable-background="new 0 0 66 65" xml:space="preserve">
<polygon fill="#19B895" points="12.6,4.532 1.494,19.588 24.135,19.588 "/>
<polygon fill="#65C8CD" points="34.824,0 12.6,4.532 24.135,19.588 "/>
<polygon fill="#34B9EB" points="50.955,30.594 34.823,0 24.135,19.588 "/>
<polygon fill="#00ACE1" points="30.768,53.46 50.955,30.594 24.135,19.587 "/>
<polygon fill="#00A191" points="0,45.762 24.135,19.588 1.493,19.588 "/>
<polygon fill="#008D58" points="30.768,53.46 0.001,45.761 24.135,19.587 "/>
<polygon fill="#76B9E6" points="30.768,53.46 66,40.241 50.955,30.594 "/>
<polygon fill="#68CBDD" points="60.788,12.06 50.955,30.594 66,40.241 "/>
<polygon fill="#47BFAE" points="34.824,0 60.788,12.06 50.955,30.594 "/>
<polygon fill="#4A61AD" points="22.076,65 0,45.762 30.768,53.46 "/>
<polygon fill="#7363AB" points="50.955,63.557 30.768,53.46 22.076,65 "/>
<polygon fill="#9297CB" points="66,40.241 50.955,63.558 30.768,53.46 "/>
<g>
	<path fill="#FFFFFF" d="M19.996,48.528l3.316-5.446c1.831,1.98,4.504,2.772,7.275,2.772c2.524,0,6.087-1.04,6.087-5.495v-1.832
		c-1.979,2.327-4.355,3.465-7.077,3.465c-5.84,0-10.541-4.01-10.541-12.08c0-7.871,4.553-12.03,10.541-12.03
		c2.672,0,5.147,1.04,7.077,3.416v-2.822h7.572V40.26c0,9.753-7.721,11.832-13.659,11.832
		C26.479,52.092,23.065,51.053,19.996,48.528z M36.674,33.131v-6.386c-0.94-1.287-2.969-2.129-4.553-2.129
		c-3.019,0-5.246,1.832-5.246,5.297c0,3.515,2.227,5.347,5.246,5.347C33.705,35.26,35.734,34.419,36.674,33.131z"/>
</g>
</svg>
