<?xml version="1.0" encoding="utf-8"?>
<!-- Generator: Adobe Illustrator 17.0.1, SVG Export Plug-In . SVG Version: 6.00 Build 0)  -->
<!DOCTYPE svg PUBLIC "-//W3C//DTD SVG 1.1//EN" "http://www.w3.org/Graphics/SVG/1.1/DTD/svg11.dtd">
<svg version="1.1" id="Layer_1" xmlns="http://www.w3.org/2000/svg" xmlns:xlink="http://www.w3.org/1999/xlink" x="0px" y="0px"
	 width="94px" height="93px" viewBox="0 0 94 93" enable-background="new 0 0 94 93" xml:space="preserve">
<polygon fill="#19B895" points="17.945,6.484 2.128,28.025 34.374,28.025 "/>
<polygon fill="#65C8CD" points="49.597,0 17.945,6.484 34.374,28.025 "/>
<polygon fill="#34B9EB" points="72.573,43.773 49.597,0.001 34.375,28.025 "/>
<polygon fill="#00ACE1" points="43.821,76.489 72.573,43.773 34.375,28.025 "/>
<polygon fill="#00A191" points="0,65.475 34.374,28.025 2.127,28.025 "/>
<polygon fill="#008D58" points="43.821,76.489 0.001,65.474 34.375,28.025 "/>
<polygon fill="#76B9E6" points="43.821,76.489 94,57.576 72.573,43.773 "/>
<polygon fill="#68CBDD" points="86.578,17.255 72.573,43.773 94,57.576 "/>
<polygon fill="#47BFAE" points="49.597,0 86.576,17.255 72.573,43.773 "/>
<polygon fill="#4A61AD" points="31.442,93 0,65.475 43.821,76.489 "/>
<polygon fill="#7363AB" points="72.573,90.935 43.821,76.489 31.442,93 "/>
<polygon fill="#9297CB" points="94,57.576 72.573,90.937 43.821,76.489 "/>
<g>
	<path fill="#FFFFFF" d="M28.479,69.432l4.723-7.792c2.608,2.833,6.414,3.967,10.362,3.967c3.595,0,8.67-1.487,8.67-7.862v-2.621
		c-2.819,3.329-6.203,4.958-10.08,4.958c-8.317,0-15.014-5.737-15.014-17.283c0-11.262,6.485-17.212,15.014-17.212
		c3.806,0,7.331,1.487,10.08,4.888v-4.037h10.785v31.166c0,13.954-10.996,16.929-19.454,16.929
		C37.713,74.532,32.85,73.045,28.479,69.432z M52.233,47.403v-9.137c-1.339-1.842-4.229-3.046-6.485-3.046
		c-4.3,0-7.472,2.621-7.472,7.579c0,5.029,3.172,7.65,7.472,7.65C48.004,50.449,50.894,49.245,52.233,47.403z"/>
</g>
</svg>
