<?xml version="1.0" encoding="utf-8"?>
<!-- Generator: Adobe Illustrator 17.0.1, SVG Export Plug-In . SVG Version: 6.00 Build 0)  -->
<!DOCTYPE svg PUBLIC "-//W3C//DTD SVG 1.1//EN" "http://www.w3.org/Graphics/SVG/1.1/DTD/svg11.dtd">
<svg version="1.1" id="Layer_1" xmlns="http://www.w3.org/2000/svg" xmlns:xlink="http://www.w3.org/1999/xlink" x="0px" y="0px"
	 width="40px" height="40px" viewBox="0 0 40 40" enable-background="new 0 0 40 40" xml:space="preserve">
<g id="linkedin-footer-icon">
	<path fill="#0474B6" d="M39.94,20c0,14.82-5.17,20-19.971,20C5.18,40,0,34.82,0,20S5.18,0,19.969,0C34.77,0,39.94,5.18,39.94,20z"
		/>
	<path fill="#FFFFFF" d="M21.96,19.83c0-1.52,0.951-2.27,2.061-2.27s2.01,0.75,2.01,2.649v6.431h3.7v-6.811
		c0-3.41-1.851-5.301-4.44-5.301c-1.479,0-2.59,0.861-3.33,2l-0.119-1.619h-3.641c0,0.39,0.061,2.65,0.061,2.65v9.08h3.699
		L21.96,19.83L21.96,19.83z M16.04,14.91v11.73h-3.689V14.91H16.04z M14.15,13.02c-1.31,0-2.17-0.93-2.17-2.09
		c0-1.17,0.88-2.07,2.229-2.07c1.34,0,2.19,0.9,2.211,2.07c0,1.16-0.871,2.09-2.24,2.09H14.15z"/>
</g>
<g id="Layer_1_1_">
</g>
</svg>
