<?xml version="1.0" encoding="utf-8"?>
<!-- Generator: Adobe Illustrator 17.0.1, SVG Export Plug-In . SVG Version: 6.00 Build 0)  -->
<!DOCTYPE svg PUBLIC "-//W3C//DTD SVG 1.1//EN" "http://www.w3.org/Graphics/SVG/1.1/DTD/svg11.dtd">
<svg version="1.1" id="Layer_1" xmlns="http://www.w3.org/2000/svg" xmlns:xlink="http://www.w3.org/1999/xlink" x="0px" y="0px"
	 width="80px" height="80px" viewBox="0 0 80 80" enable-background="new 0 0 80 80" xml:space="preserve">
<g id="twitter-icon">
	<path fill="#2FADE3" d="M80,40c0,29.63-10.359,40-40,40C10.37,80,0,69.63,0,40C0,10.359,10.37,0,40,0C69.641,0,80,10.359,80,40z"/>
	<path fill="#FFFFFF" d="M54.71,33.13v0.94c0,9.63-7.3,20.74-20.681,20.74c-4.1,0-7.949-0.9-11.149-2.961
		c0.57,0.08,1.149,0.121,1.72,0.121c3.41,0,6.561-1.48,9.03-3.451c-3.159-0.039-5.87-2.18-6.771-5.06
		c0.451,0.08,0.9,0.12,1.351,0.12c0.66,0,1.31-0.08,1.931-0.25c-3.32-0.66-5.83-3.62-5.83-7.16v-0.08
		c0.989,0.53,2.09,0.86,3.289,0.9c-1.97-1.32-3.24-3.54-3.24-6.04c0-1.36,0.361-2.47,0.98-3.54c3.61,4.4,8.939,7.15,14.971,7.48
		c-0.121-0.531-0.16-1.111-0.16-1.681c0-4.04,3.24-7.29,7.26-7.29c2.09,0,3.98,0.91,5.33,2.311c1.64-0.33,3.199-0.951,4.6-1.771
		c-0.54,1.69-1.689,3.13-3.199,4.03c1.469-0.16,2.869-0.57,4.18-1.15C57.34,30.82,56.109,32.1,54.71,33.13z"/>
</g>
<g id="Layer_1_1_">
</g>
</svg>
