<?xml version="1.0" encoding="utf-8"?>
<!-- Generator: Adobe Illustrator 17.0.1, SVG Export Plug-In . SVG Version: 6.00 Build 0)  -->
<!DOCTYPE svg PUBLIC "-//W3C//DTD SVG 1.1//EN" "http://www.w3.org/Graphics/SVG/1.1/DTD/svg11.dtd">
<svg version="1.1" id="Layer_1" xmlns="http://www.w3.org/2000/svg" xmlns:xlink="http://www.w3.org/1999/xlink" x="0px" y="0px"
	 width="40px" height="40px" viewBox="0 0 40 40" enable-background="new 0 0 40 40" xml:space="preserve">
<g id="twitter-footer-icon">
	<path fill="#2FADE3" d="M39.939,20c0,14.82-5.18,20-19.969,20C5.17,40,0,34.82,0,20S5.17,0,19.971,0C34.76,0,39.939,5.18,39.939,20
		z"/>
	<path fill="#FFFFFF" d="M27.311,16.561v0.479c0,4.81-3.641,10.37-10.32,10.37c-2.051,0-3.971-0.46-5.57-1.48
		c0.29,0.041,0.57,0.061,0.859,0.061c1.701,0,3.281-0.74,4.511-1.73c-1.58-0.02-2.931-1.09-3.38-2.529
		c0.22,0.039,0.449,0.06,0.67,0.06c0.33,0,0.66-0.04,0.97-0.12c-1.659-0.33-2.909-1.82-2.909-3.58v-0.04
		c0.489,0.261,1.039,0.431,1.639,0.45c-0.989-0.66-1.619-1.77-1.619-3.029c0-0.681,0.18-1.23,0.49-1.771
		c1.8,2.21,4.459,3.579,7.47,3.75c-0.06-0.271-0.08-0.56-0.08-0.851c0-2.01,1.62-3.64,3.63-3.64c1.04,0,1.98,0.46,2.66,1.149
		c0.82-0.159,1.6-0.469,2.29-0.879c-0.261,0.84-0.841,1.56-1.591,2.02c0.73-0.09,1.431-0.29,2.08-0.58
		C28.62,15.41,28.01,16.05,27.311,16.561z"/>
</g>
<g id="Layer_1_1_">
</g>
</svg>
