<?xml version="1.0" encoding="utf-8"?>
<!-- Generator: Adobe Illustrator 17.0.1, SVG Export Plug-In . SVG Version: 6.00 Build 0)  -->
<!DOCTYPE svg PUBLIC "-//W3C//DTD SVG 1.1//EN" "http://www.w3.org/Graphics/SVG/1.1/DTD/svg11.dtd">
<svg version="1.1" id="Layer_1" xmlns="http://www.w3.org/2000/svg" xmlns:xlink="http://www.w3.org/1999/xlink" x="0px" y="0px"
	 width="30px" height="30px" viewBox="0 0 30 30" enable-background="new 0 0 30 30" xml:space="preserve">
<g id="white-twitter-icon">
	<path fill="#FFFFFF" d="M29.85,15c0,11.109-3.859,15-14.92,15C3.87,30,0,26.109,0,15S3.87,0,14.93,0S29.85,3.891,29.85,15z"/>
	<path fill="#1FACE3" d="M20.42,12.42v0.359c0,3.611-2.73,7.771-7.72,7.771c-1.53,0-2.97-0.34-4.16-1.11
		c0.21,0.041,0.431,0.051,0.64,0.051c1.271,0,2.45-0.561,3.37-1.301c-1.18-0.01-2.19-0.81-2.53-1.89c0.17,0.03,0.34,0.04,0.51,0.04
		c0.24,0,0.49-0.029,0.721-0.09c-1.24-0.25-2.18-1.359-2.18-2.689V13.53c0.369,0.201,0.779,0.33,1.229,0.341
		c-0.739-0.49-1.21-1.33-1.21-2.271c0-0.51,0.141-0.92,0.37-1.32c1.34,1.65,3.33,2.681,5.58,2.811c-0.04-0.21-0.06-0.42-0.06-0.64
		c0-1.511,1.209-2.729,2.709-2.729c0.781,0,1.49,0.34,1.99,0.859c0.61-0.12,1.2-0.35,1.721-0.66c-0.2,0.63-0.631,1.17-1.2,1.51
		c0.55-0.06,1.069-0.209,1.56-0.43C21.4,11.561,20.939,12.04,20.42,12.42z"/>
</g>
<g id="Layer_1_1_">
</g>
</svg>
