<?xml version="1.0" encoding="utf-8"?>
<!-- Generator: Adobe Illustrator 17.0.1, SVG Export Plug-In . SVG Version: 6.00 Build 0)  -->
<!DOCTYPE svg PUBLIC "-//W3C//DTD SVG 1.1//EN" "http://www.w3.org/Graphics/SVG/1.1/DTD/svg11.dtd">
<svg version="1.1" id="Layer_1" xmlns="http://www.w3.org/2000/svg" xmlns:xlink="http://www.w3.org/1999/xlink" x="0px" y="0px"
	 width="30px" height="30px" viewBox="0 0 30 30" enable-background="new 0 0 30 30" xml:space="preserve">
<g id="white-linkedin-icon">
	<path fill="#FFFFFF" d="M29.85,15c0,11.109-3.87,15-14.93,15C3.859,30,0,26.109,0,15S3.859,0,14.92,0C25.98,0,29.85,3.891,29.85,15
		z"/>
	<path fill="#0773B7" d="M16.411,14.87c0-1.14,0.709-1.7,1.539-1.7s1.5,0.561,1.5,1.99v4.82h2.771v-5.11c0-2.55-1.38-3.97-3.32-3.97
		c-1.11,0-1.94,0.64-2.489,1.5l-0.09-1.221h-2.721c0,0.301,0.05,1.99,0.05,1.99v6.811h2.761L16.411,14.87L16.411,14.87z
		 M11.991,11.18v8.801H9.23V11.18H11.991z M10.571,9.76C9.6,9.76,8.95,9.071,8.95,8.2c0-0.88,0.66-1.56,1.67-1.56
		c1,0,1.631,0.68,1.65,1.56c0,0.87-0.65,1.56-1.68,1.56H10.571z"/>
</g>
<g id="Layer_1_1_">
</g>
</svg>
