<?xml version="1.0" encoding="utf-8"?>
<!-- Generator: Adobe Illustrator 16.2.1, SVG Export Plug-In . SVG Version: 6.00 Build 0)  -->
<!DOCTYPE svg PUBLIC "-//W3C//DTD SVG 1.1//EN" "http://www.w3.org/Graphics/SVG/1.1/DTD/svg11.dtd">
<svg version="1.1" id="Layer_1" xmlns="http://www.w3.org/2000/svg" xmlns:xlink="http://www.w3.org/1999/xlink" x="0px" y="0px"
	 width="1190.55px" height="841.89px" viewBox="0 0 1190.55 841.89" enable-background="new 0 0 1190.55 841.89"
	 xml:space="preserve">
<polygon fill="#19B895" points="477.044,196.521 390.138,314.299 567.312,314.299 "/>
<polygon fill="#65C8CD" points="650.957,161.069 477.044,196.521 567.312,314.299 "/>
<polygon fill="#34B9EB" points="777.192,400.399 650.952,161.072 567.316,314.299 "/>
<polygon fill="#00ACE1" points="619.217,579.278 777.192,400.399 567.316,314.296 "/>
<polygon fill="#00A191" points="378.448,519.06 567.312,314.299 390.135,314.299 "/>
<polygon fill="#008D58" points="619.217,579.278 378.452,519.054 567.316,314.296 "/>
<polygon fill="#76B9E6" points="619.217,579.278 894.923,475.872 777.192,400.399 "/>
<polygon fill="#68CBDD" points="854.141,255.412 777.192,400.399 894.923,475.872 "/>
<polygon fill="#47BFAE" points="650.957,161.069 854.135,255.412 777.192,400.399 "/>
<polygon fill="#4A61AD" points="551.204,669.554 378.448,519.06 619.217,579.278 "/>
<polygon fill="#7363AB" points="777.192,658.265 619.221,579.278 551.201,669.554 "/>
<polygon fill="#9297CB" points="894.923,475.872 777.192,658.272 619.221,579.278 "/>
<g>
	<path fill="#FFFFFF" d="M534.926,540.696l25.948-42.602c14.33,15.491,35.243,21.688,56.931,21.688
		c19.751,0,47.635-8.133,47.635-42.988v-14.329c-15.49,18.202-34.08,27.109-55.381,27.109c-45.699,0-82.491-31.369-82.491-94.497
		c0-61.577,35.63-94.109,82.491-94.109c20.913,0,40.277,8.133,55.381,26.723v-22.075h59.255V476.02
		c0,76.295-60.416,92.561-106.89,92.561C585.66,568.58,558.937,560.447,534.926,540.696z M665.439,420.251v-49.96
		c-7.357-10.069-23.236-16.653-35.629-16.653c-23.625,0-41.053,14.33-41.053,41.439c0,27.497,17.428,41.827,41.053,41.827
		C642.203,436.904,658.082,430.32,665.439,420.251z"/>
</g>
</svg>
